<?xml version="1.0" standalone="no"?>
<!DOCTYPE svg PUBLIC "-//W3C//DTD SVG 20010904//EN"
 "http://www.w3.org/TR/2001/REC-SVG-20010904/DTD/svg10.dtd">
<svg version="1.0" xmlns="http://www.w3.org/2000/svg"
 width="512.000000pt" height="512.000000pt" viewBox="0 0 512.000000 512.000000"
 preserveAspectRatio="xMidYMid meet">
<metadata>
Created by potrace 1.14, written by Peter Selinger 2001-2017
</metadata>
<g transform="translate(0.000000,512.000000) scale(0.100000,-0.100000)"
fill="#000000" stroke="none">
<path d="M90 2225 c0 -1778 0 -1786 21 -1847 43 -129 138 -224 267 -267 l61
-21 2119 0 c1910 0 2124 2 2173 16 130 38 234 140 278 272 21 61 21 69 21
1847 l0 1785 -2470 0 -2470 0 0 -1785z m1046 929 c236 -141 441 -269 457 -285
30 -33 34 -64 12 -96 -13 -19 -852 -531 -899 -549 -42 -16 -106 29 -106 76 0
14 7 35 15 48 9 12 182 121 386 243 203 122 367 225 364 228 -4 3 -171 105
-373 226 -239 144 -372 230 -381 246 -27 48 14 119 70 119 17 0 178 -90 455
-256z m1803 -779 c49 -25 57 -90 16 -130 l-24 -25 -540 0 -540 0 -26 23 c-46
39 -34 116 20 137 11 5 255 9 543 9 440 1 527 -1 551 -14z m-408 -784 c38 -38
38 -74 0 -112 l-30 -29 -970 2 -970 3 -23 22 c-33 33 -30 89 6 119 l27 24 965
0 966 0 29 -29z m941 -1 c25 -26 29 -36 24 -63 -3 -18 -17 -42 -32 -54 -25
-23 -27 -23 -350 -23 l-326 0 -29 29 c-17 18 -29 40 -29 56 0 16 12 38 29 56
l29 29 327 0 327 0 30 -30z m1104 6 c36 -30 39 -86 6 -119 -22 -22 -24 -22
-438 -25 l-415 -3 -29 30 c-17 16 -30 39 -30 50 0 31 20 68 44 79 13 7 170 11
428 11 l407 1 27 -24z m-3409 -428 c30 -28 31 -83 1 -115 l-21 -23 -289 0
c-166 0 -297 4 -307 10 -31 16 -46 65 -31 100 7 17 20 35 29 40 9 5 142 10
305 10 284 0 290 0 313 -22z m598 -3 c31 -30 32 -73 4 -109 l-20 -26 -167 0
c-156 0 -167 1 -189 22 -30 28 -31 83 -1 115 21 22 27 23 185 23 161 0 164 0
188 -25z m1357 11 c42 -31 40 -113 -2 -136 -25 -13 -1095 -13 -1120 0 -42 23
-44 105 -2 136 25 19 1099 19 1124 0z m1447 4 c31 -16 46 -65 31 -100 -7 -17
-21 -35 -31 -40 -11 -6 -249 -10 -608 -10 l-590 0 -20 26 c-28 36 -27 79 4
109 l24 25 586 0 c356 0 593 -4 604 -10z m-2909 -425 c50 -26 57 -94 14 -133
l-25 -22 -538 0 c-522 0 -539 1 -564 20 -48 38 -41 110 13 137 19 10 146 13
548 13 448 0 527 -2 552 -15z m1960 2 c53 -27 62 -96 18 -137 -22 -20 -32 -20
-865 -20 l-844 0 -24 25 c-44 43 -26 116 35 138 8 3 384 6 835 6 642 1 825 -2
845 -12z m962 -14 c33 -33 30 -89 -6 -119 l-27 -24 -328 0 c-315 0 -328 1
-349 20 -30 28 -38 68 -21 99 28 50 40 51 386 49 318 -3 323 -3 345 -25z"/>
</g>
</svg>
